<svg id="Layer_1" enable-background="new 0 0 512 512" height="512" viewBox="0 0 512 512" width="512" xmlns="http://www.w3.org/2000/svg"><g><g><path d="m157.193 473.579c-43.679-30.978-72.185-81.945-72.185-139.571 0-94.436 76.556-170.992 170.992-170.992s170.992 76.556 170.992 170.992c0 57.625-28.506 108.593-72.185 139.571z" fill="#ffbf59"/><path d="m179.177 334.008-21.982 139.569c27.901 19.789 61.994 31.423 98.805 31.423s70.904-11.634 98.806-31.423l-21.982-139.569z" fill="#587082"/><path d="m270.504 387.705h-29.008l-18.398-62.721h65.804z" fill="#fff"/><ellipse cx="390.225" cy="96.526" fill="#587082" rx="89.137" ry="89.526"/><ellipse cx="390.225" cy="96.526" fill="#ffb8d3" rx="57.401" ry="57.651"/><path d="m390.225 38.875c-7.05 0-13.8 1.283-20.041 3.618 21.818 8.166 37.361 29.274 37.361 54.033s-15.543 45.867-37.361 54.033c6.24 2.335 12.99 3.618 20.041 3.618 31.702 0 57.401-25.811 57.401-57.651s-25.7-57.651-57.401-57.651z" fill="#ffa6c8"/><ellipse cx="121.775" cy="96.526" fill="#587082" rx="89.137" ry="89.526"/><ellipse cx="121.775" cy="96.526" fill="#ffb8d3" rx="57.401" ry="57.651"/><path d="m368.144 118.146c-.008-.007-.015-.014-.022-.02-79.469-22.269-144.776-22.269-224.245 0-.008.007-.016.014-.022.021-19.525 70.612-19.525 145.246 0 215.857.008.007.016.015.023.021 79.468 22.268 144.775 22.268 224.243 0 .008-.008.016-.015.023-.021 19.525-70.612 19.525-145.246 0-215.858z" fill="#889fb0"/><path d="m368.14 118.131c-47.067-13.191-89.166-18.567-132.181-16.135 29.625 1.675 59.684 7.051 92.101 16.135 19.531 70.622 19.531 145.268 0 215.89-32.416 9.085-62.476 14.46-92.101 16.135 43.015 2.432 85.114-2.945 132.181-16.135 19.531-70.623 19.531-145.269 0-215.89z" fill="#7b93a6"/><path d="m260.123 311.368 23.439-19.488c9.525-7.919-5.114-22.907-27.552-22.907-23.025 0-37.081 14.993-27.564 22.907l23.439 19.488c2.387 1.986 5.85 1.986 8.238 0z" fill="#ffb8d3"/></g><g fill="#020202"><path d="m389.956 193.693c53.187 0 96.458-43.445 96.458-96.847s-43.271-96.846-96.458-96.846c-52.954 0-96.072 43.066-96.449 96.146-25.195-2.606-49.818-2.606-75.013 0-.377-53.08-43.496-96.146-96.45-96.146-53.187 0-96.457 43.445-96.457 96.846 0 53.009 44.576 97.487 97.673 96.831-.597 7.552-.984 15.117-1.163 22.686-28.539 32.503-44.245 74.151-44.245 117.489 0 95.75 77.914 178.148 178.148 178.148 103.5 0 178.148-81.197 178.148-178.148 0-43.337-15.706-84.986-44.245-117.489-.18-7.569-.566-15.134-1.163-22.686.405.005.811.016 1.216.016zm-81.458-96.847c0-45.13 36.542-81.846 81.458-81.846s81.458 36.716 81.458 81.846c0 45.404-38.653 83.272-84.133 81.798-.658-5.666-1.44-11.321-2.334-16.962 1.664.128 3.335.2 5.01.2 35.723 0 64.786-29.175 64.786-65.036s-29.063-65.036-64.786-65.036-64.786 29.175-64.786 65.036c0 1.297.05 2.593.127 3.886-5.642-1.04-11.23-1.945-16.783-2.737-.007-.383-.017-.767-.017-1.149zm32.166 6.996c-.321-2.31-.494-4.651-.494-6.996 0-27.59 22.334-50.036 49.786-50.036s49.786 22.446 49.786 50.036-22.333 50.036-49.786 50.036c-2.608 0-5.2-.226-7.758-.628-1.98-10.011-4.322-19.968-7.053-29.846-.7-2.533-2.675-4.514-5.205-5.223-9.967-2.792-19.706-5.238-29.276-7.343zm21.131 20.656c17.65 66.587 17.65 136.688 0 203.275-34.68 9.437-66.589 14.493-98.295 15.182v-24.917c8.875-5.68 16.71-13.736 24.801-20.464 5.197-4.321 6.952-10.632 4.694-16.881-4.031-11.152-19.585-19.247-36.985-19.247-17.47 0-33.052 8.032-37.051 19.098-2.277 6.299-.502 12.665 4.748 17.029 8.076 6.714 15.943 14.788 24.794 20.459v24.921c-33.279-.723-66.223-6.455-98.295-15.182-17.65-66.588-17.65-136.688 0-203.275 70.483-19.179 141.05-19.195 211.589.002zm-105.791 180.423c-7.411-6.161-16.572-11.949-22.985-19.142 2.031-7.402 17.175-9.331 22.991-9.331 6.132 0 20.464 1.931 22.903 9.41-6.838 6.974-15.394 12.815-22.909 19.063zm-.004 53.175c5.119 0 10.238-.122 15.367-.342l-6.508 22.187h-17.718l-6.508-22.187c5.129.22 10.248.342 15.367.342zm-133.956-179.403c-44.916 0-81.458-36.716-81.458-81.847s36.542-81.846 81.458-81.846 81.458 36.716 81.458 81.846c0 .383-.019.767-.025 1.15-5.561.794-11.158 1.7-16.809 2.742.773-14.342-3.276-28.809-11.712-40.968-10.524-15.168-26.819-25.17-44.708-27.443-10.062-1.276-20.397-.166-29.886 3.217-3.902 1.391-5.938 5.681-4.546 9.583 1.391 3.902 5.683 5.94 9.583 4.546 7.283-2.596 15.223-3.449 22.959-2.465 13.678 1.737 26.17 9.433 34.274 21.113 7.299 10.52 10.361 23.238 8.696 35.523-9.568 2.105-19.304 4.55-29.267 7.342-2.53.709-4.504 2.69-5.205 5.223-2.733 9.882-5.076 19.843-7.056 29.859-7.617 1.182-15.583.6-22.868-1.73-13.117-4.194-24.389-14.221-30.151-26.822-5.975-13.064-5.974-28.667 0-41.739 1.722-3.767.063-8.217-3.704-9.939-3.768-1.721-8.217-.064-9.939 3.704-7.76 16.978-7.759 37.244 0 54.213 7.601 16.621 21.897 29.331 39.224 34.871 6.393 2.044 13.023 3.07 19.667 3.069 1.675 0 3.35-.073 5.022-.203-.892 5.631-1.674 11.276-2.331 16.932-.891.028-1.785.069-2.676.069zm-29.192 155.159c0-33.624 10.324-66.138 29.368-93.389 1.118 32.126 5.994 64.152 14.636 95.4.7 2.532 2.675 4.514 5.205 5.223 9.334 2.616 18.463 4.916 27.447 6.928l-17.548 111.412c-36.087-29.95-59.108-75.123-59.108-125.574zm267.188 125.574-4.684-29.742c-1.508-9.58-16.326-7.245-14.817 2.334l5.913 37.544c-25.905 17.322-57.018 27.438-90.452 27.438s-64.547-10.116-90.451-27.438l18.664-118.498c13.745 2.616 27.184 4.497 40.484 5.651l9.632 32.837c.937 3.195 3.868 5.389 7.197 5.389h28.95c3.329 0 6.26-2.194 7.197-5.389l9.632-32.837c13.3-1.153 26.739-3.035 40.484-5.651l5.961 37.85c1.479 9.393 16.34 7.335 14.817-2.334l-6.074-38.566c8.984-2.013 18.112-4.313 27.447-6.928 2.53-.709 4.504-2.69 5.205-5.223 8.642-31.248 13.518-63.274 14.636-95.4 19.045 27.251 29.368 59.764 29.368 93.389-.001 50.451-23.022 95.624-59.109 125.574z"/><path d="m208.202 217.692c-9.652 0-9.668 15 0 15 9.652 0 9.668-15 0-15z"/><path d="m303.798 232.692c9.652 0 9.668-15 0-15-9.652 0-9.668 15 0 15z"/><path d="m305.899 284.936c-.025 2.918 1.645 5.586 4.281 6.838l35.333 16.786c8.439 4.009 15.172-9.399 6.437-13.549l-20.754-9.859 20.638-9.375c8.829-4.011 2.626-17.665-6.204-13.657l-35.333 16.052c-2.657 1.207-4.373 3.846-4.398 6.764z"/><path d="m201.819 278.96-35.333-16.786c-8.758-4.163-15.196 9.388-6.437 13.549l20.754 9.859-20.638 9.375c-8.679 3.943-2.362 17.545 6.204 13.657l35.333-16.052c5.7-2.589 5.772-10.915.117-13.602z"/></g></g></svg>